<?xml version="1.0" encoding="utf-8"?>
<!-- Generator: Adobe Illustrator 21.0.0, SVG Export Plug-In . SVG Version: 6.00 Build 0)  -->
<svg version="1.1" id="Layer_1" xmlns="http://www.w3.org/2000/svg" xmlns:xlink="http://www.w3.org/1999/xlink" x="0px" y="0px"
	 viewBox="0 0 14 14" style="enable-background:new 0 0 14 14;" xml:space="preserve">
<style type="text/css">
	.st0{fill:#757575;}
</style>
<title>thumbs-up-hand-symbol</title>
<desc>Created with Sketch.</desc>
<g id="Symbols">
	<g id="post_action" transform="translate(-149.000000, -4.000000)">
		<g id="Group-9">
			<g transform="translate(150.000000, 1.000000)">
				<g id="thumbs-up-hand-symbol" transform="translate(0.000000, 4.000000)">
					<g id="Shape">
						<path class="st0" d="M9.2,12.5H8.5c-0.4,0-0.8,0-1.2-0.1c-0.4-0.1-0.8-0.2-1-0.2c-0.2-0.1-0.5-0.2-1-0.3
							c-0.8-0.3-1.1-0.3-1.1-0.3c-0.3,0-0.5-0.1-0.7-0.3c-0.2-0.2-0.3-0.4-0.3-0.7v-5c0-0.3,0.1-0.5,0.3-0.7
							c0.2-0.2,0.4-0.3,0.6-0.3c0,0,0.1-0.1,0.3-0.3C4.7,3.9,5,3.6,5.2,3.3c0.4-0.5,0.6-0.8,0.8-1c0,0,0.1-0.1,0.1-0.2
							C6.2,2,6.3,1.9,6.3,1.8c0-0.1,0.1-0.2,0.1-0.5c0-0.2,0.1-0.4,0.1-0.5c0-0.1,0.1-0.3,0.2-0.5C6.8,0.1,6.9-0.1,7-0.2
							c0.4-0.4,1-0.3,1.5-0.2C8.8-0.3,9-0.2,9.1-0.1C9.3,0,9.5,0.1,9.6,0.3c0.1,0.2,0.2,0.3,0.2,0.5c0.1,0.1,0.1,0.3,0.1,0.5
							c0,0.2,0,0.3,0,0.4c0,0.1,0,0.2,0,0.3c0,0.2,0,0.5-0.1,0.7C9.8,2.9,9.8,3.1,9.7,3.3c0,0.1-0.1,0.2-0.1,0.2H11
							c0.5,0,1,0.2,1.4,0.6C12.8,4.5,13,5,13,5.5c0,0.5-0.1,0.9-0.4,1.3c0,0.2,0.1,0.3,0.1,0.5c0,0.4-0.1,0.8-0.3,1.2
							c0.1,0.3,0,0.6-0.1,0.9c-0.1,0.3-0.2,0.6-0.4,0.8c0,0.6-0.2,1.1-0.5,1.5c-0.4,0.5-1.1,0.8-1.9,0.8H9.2z M7.7,0.5
							C7.7,0.6,7.6,0.7,7.6,0.8C7.5,0.9,7.5,1,7.5,1.1c0,0.1-0.1,0.3-0.1,0.4C7.3,1.8,7.3,1.9,7.3,2c0,0.1-0.1,0.3-0.2,0.5
							C7,2.7,6.9,2.9,6.7,3C6.6,3.2,6.3,3.5,6,3.9c-0.3,0.3-0.5,0.7-0.8,1C4.8,5.3,4.5,5.5,4.3,5.5l0,5c0.2,0,0.5,0.1,1.4,0.4
							C6,11,6.3,11.1,6.6,11.2c0.2,0.1,0.5,0.1,0.9,0.2c0.4,0.1,0.7,0.1,1,0.1h1c0.5,0,0.9-0.1,1.2-0.4c0.2-0.3,0.3-0.6,0.3-1.1
							l0-0.2l0.2-0.2c0.1-0.1,0.2-0.3,0.3-0.5c0.1-0.2,0.1-0.4,0-0.6l-0.1-0.2L11.4,8c0.2-0.2,0.2-0.5,0.2-0.7c0-0.1,0-0.2-0.1-0.5
							l-0.1-0.3l0.2-0.2C11.9,6.1,12,5.8,12,5.5c0-0.3-0.1-0.5-0.3-0.7c-0.2-0.2-0.4-0.3-0.7-0.3H8.2l0.2-0.6c0-0.1,0.1-0.2,0.1-0.2
							c0-0.1,0.1-0.2,0.1-0.2l0.1-0.1C8.7,3.1,8.8,3,8.8,2.9c0-0.1,0.1-0.2,0.1-0.4C9,2.3,9,2.2,9,2c0-0.1,0-0.2,0-0.3
							c0-0.1,0-0.2,0-0.3c0-0.1,0-0.2-0.1-0.3c0-0.1-0.1-0.2-0.1-0.3c0-0.1-0.1-0.1-0.2-0.2C8.5,0.7,8.4,0.6,8.2,0.6
							C8.1,0.5,7.9,0.5,7.7,0.5z"/>
					</g>
					<g id="Shape_1_">
						<path class="st0" d="M2.7,11.5H0.5c-0.3,0-0.5-0.1-0.7-0.3c-0.2-0.2-0.3-0.4-0.3-0.7v-5c0-0.3,0.1-0.5,0.3-0.7
							C0,4.6,0.2,4.5,0.5,4.5h2.2c0.3,0,0.5,0.1,0.7,0.3C3.6,5,3.7,5.2,3.7,5.5v5c0,0.3-0.1,0.5-0.3,0.7C3.3,11.4,3,11.5,2.7,11.5z
							 M0.5,9.5v1h1c-0.3,0-0.5-0.1-0.7-0.3C0.6,10,0.5,9.8,0.5,9.5z M2.2,10.2c-0.2,0.2-0.4,0.3-0.7,0.3l1.2,0l0-5H0.5l0,4
							c0-0.2,0.1-0.5,0.3-0.7c0.4-0.4,1-0.4,1.4,0C2.4,9,2.5,9.2,2.5,9.5C2.5,9.8,2.4,10,2.2,10.2z M1.5,9.5L1.5,9.5l0.3,0.4
							L1.5,9.5z"/>
					</g>
				</g>
			</g>
		</g>
	</g>
</g>
</svg>
